<?xml version="1.0" encoding="UTF-8"?> <svg xmlns="http://www.w3.org/2000/svg" id="Layer_1" data-name="Layer 1" viewBox="0 0 285.2 272.55"><defs><style> .cls-1 { fill: #d6cec4; } .cls-1, .cls-2 { stroke-width: 0px; } .cls-2 { fill: #fff; } </style></defs><rect class="cls-1" x="-3.16" y="-4.16" width="291.51" height="280.87"></rect><path class="cls-2" d="M225.8,53.08c-22.22-22.22-51.77-34.46-83.2-34.46s-60.98,12.24-83.2,34.46c-22.22,22.22-34.46,51.77-34.46,83.2s12.24,60.98,34.46,83.2c22.22,22.22,51.77,34.46,83.2,34.46,10.82,0,21.54-1.47,31.88-4.37l-10.94-13.96c-6.87,1.44-13.91,2.17-20.95,2.17-55.97,0-101.5-45.53-101.5-101.5s45.53-101.5,101.5-101.5,101.5,45.53,101.5,101.5c0,17.64-4.6,35.01-13.29,50.24-8.43,14.77-20.55,27.29-35.04,36.22l-.38.23-.28-.34-39.68-49.49.94-.07c12.8-1.01,24.67-6.76,33.44-16.2,8.81-9.49,13.67-21.85,13.67-34.81,0-28.22-22.96-51.18-51.18-51.18h-62.9l15.11,15.56h44.55c20.01,0,36.92,16.91,36.92,36.94,0,22.9-21.74,36.27-41.74,36.27h-20.92l65.91,84.68c43.17-18.65,71.04-61.02,71.04-108.06,0-31.43-12.24-60.98-34.46-83.2Z"></path></svg> 